<svg width="50" height="46" viewBox="0 0 50 46" fill="none" xmlns="http://www.w3.org/2000/svg">
<path opacity="0.965" fill-rule="evenodd" clip-rule="evenodd" d="M8.54166 0.00651188C19.5139 -0.0108527 30.4861 0.00651188 41.4583 0.0585952C43.2475 0.423887 44.4106 1.48291 44.9479 3.23568C45.0999 8.09401 45.152 12.9552 45.1041 17.819C47.67 17.9714 49.2846 19.2908 49.9479 21.7773C50.0174 29.451 50.0174 37.1245 49.9479 44.7982C49.8958 44.9891 49.7742 45.1107 49.5833 45.1627C47.9513 45.2322 46.3195 45.2322 44.6875 45.1627C44.5921 45.1238 44.5052 45.0717 44.4271 45.0065C44.2734 43.0022 44.2213 40.9884 44.2708 38.9648C31.4236 38.9648 18.5763 38.9648 5.72917 38.9648C5.74652 40.9096 5.72916 42.854 5.67708 44.7982C5.59028 44.9544 5.46875 45.076 5.3125 45.1627C3.68055 45.2322 2.04862 45.2322 0.416669 45.1627C0.2257 45.1107 0.104169 44.9891 0.0520859 44.7982C-0.017362 37.2287 -0.017362 29.6593 0.0520859 22.0898C0.64395 19.5012 2.25853 18.0775 4.89583 17.819C4.84798 12.9552 4.90006 8.09401 5.05208 3.23568C5.60755 1.4816 6.77075 0.40522 8.54166 0.00651188ZM8.75 1.77734C19.7268 1.72616 30.6989 1.77824 41.6666 1.93359C42.6204 2.33058 43.1586 3.04239 43.2812 4.06901C43.3333 8.65224 43.3507 13.2356 43.3333 17.819C41.0763 17.819 38.8195 17.819 36.5625 17.819C36.5799 16.638 36.5625 15.4573 36.5104 14.2773C36.3803 12.8189 35.7032 11.6904 34.4791 10.8919C33.9862 10.635 33.4654 10.4614 32.9166 10.3711C27.6388 10.3016 22.3611 10.3016 17.0833 10.3711C15.4593 10.675 14.3308 11.5952 13.6979 13.1315C13.5995 13.508 13.53 13.8899 13.4896 14.2773C13.4375 15.4573 13.4201 16.638 13.4375 17.819C11.1805 17.819 8.92364 17.819 6.66667 17.819C6.6493 13.2356 6.66667 8.65224 6.71875 4.06901C6.90545 2.85861 7.58253 2.09473 8.75 1.77734ZM17.2917 12.0898C22.5743 12.0396 27.8521 12.0917 33.125 12.2461C33.881 12.5507 34.3846 13.0889 34.6354 13.8607C34.781 15.1746 34.8331 16.4941 34.7916 17.819C28.2638 17.819 21.7361 17.819 15.2083 17.819C15.1909 16.6726 15.2083 15.5268 15.2604 14.3815C15.4471 13.1711 16.1242 12.4072 17.2917 12.0898ZM4.375 19.5898C18.1598 19.5724 31.9445 19.5898 45.7291 19.6419C47.0312 19.9718 47.8472 20.7878 48.1771 22.0898C48.3285 25.9061 48.3806 29.7255 48.3333 33.5482C32.8125 33.5482 17.2917 33.5482 1.77083 33.5482C1.75347 29.798 1.77083 26.048 1.82292 22.2982C2.16147 20.9009 3.01216 19.9981 4.375 19.5898ZM1.66667 35.2148C17.2222 35.2148 32.7778 35.2148 48.3333 35.2148C48.3333 35.9093 48.3333 36.6037 48.3333 37.2982C32.7778 37.2982 17.2222 37.2982 1.66667 37.2982C1.66667 36.6037 1.66667 35.9093 1.66667 35.2148ZM1.66667 38.9648C2.43055 38.9648 3.19445 38.9648 3.95833 38.9648C3.95833 40.4926 3.95833 42.0203 3.95833 43.5482C3.19445 43.5482 2.43055 43.5482 1.66667 43.5482C1.66667 42.0203 1.66667 40.4926 1.66667 38.9648ZM46.0416 38.9648C46.8055 38.9648 47.5695 38.9648 48.3333 38.9648C48.3333 40.4926 48.3333 42.0203 48.3333 43.5482C47.5695 43.5482 46.8055 43.5482 46.0416 43.5482C46.0416 42.0203 46.0416 40.4926 46.0416 38.9648Z" fill="#0A0A0A"/>
</svg>
