<svg width="50" height="29" viewBox="0 0 50 29" fill="none" xmlns="http://www.w3.org/2000/svg">
<path opacity="0.933" fill-rule="evenodd" clip-rule="evenodd" d="M49.928 7.10991C49.928 8.76768 49.928 10.4254 49.928 12.0832C49.4742 14.6321 48.174 16.6311 46.0274 18.0804C43.0073 19.8155 39.9843 19.8318 36.9584 18.1292C35.2969 20.0675 33.3142 21.579 31.01 22.6636C35.5363 22.6646 40.0545 22.7296 44.5646 22.8587C44.9364 25.202 44.0263 26.8597 41.8342 27.832C41.6111 27.9121 41.3835 27.9772 41.1516 28.027C39.5298 28.1788 37.9045 28.2114 36.2758 28.1245C35.5906 27.721 35.5255 27.2334 36.0808 26.6618C37.511 26.6293 38.9412 26.5967 40.3715 26.5643C41.7052 26.3513 42.6153 25.6199 43.1019 24.3702C29.2871 24.2402 15.4725 24.2402 1.65776 24.3702C2.13423 25.6333 3.04437 26.3647 4.3882 26.5643C14.1398 26.5967 23.8913 26.6293 33.6429 26.6618C33.8216 26.7105 33.9354 26.8243 33.9842 27.0031C34.1784 27.5723 33.9996 27.9462 33.4478 28.1245C28.5884 28.1408 23.7288 28.157 18.8693 28.1733C13.7796 28.188 8.69253 28.1392 3.60808 28.027C1.70511 27.538 0.502422 26.3515 0 24.4677C0 24.0126 0 23.5576 0 23.1025C0.0796151 22.9422 0.209636 22.8284 0.390062 22.7612C4.81077 22.7287 9.23148 22.6961 13.6522 22.6636C11.9458 21.8026 10.4018 20.7136 9.02019 19.3969C8.76029 18.7464 8.97157 18.3239 9.65404 18.1292C9.81953 18.1681 9.98199 18.2168 10.1416 18.2754C12.9053 20.9568 16.2208 22.4196 20.0882 22.6636C22.4071 22.7928 24.715 22.6952 27.0118 22.3711C33.0288 20.8722 36.9133 17.1504 38.6649 11.2056C38.8476 10.4672 38.9776 9.71962 39.055 8.96271C39.12 6.68738 39.12 4.41195 39.055 2.13662C39.0062 1.95787 38.8924 1.84407 38.7137 1.79531C36.1783 1.76284 33.6429 1.73027 31.1075 1.6978C30.4983 1.25761 30.4658 0.770032 31.01 0.235061C33.6754 0.170019 36.3408 0.170019 39.0062 0.235061C39.9381 0.487822 40.507 1.0892 40.7128 2.0391C44.1619 0.909577 46.9248 1.81979 49.0016 4.76954C49.4188 5.51953 49.7277 6.29965 49.928 7.10991ZM42.4193 3.11177C45.0207 2.93858 46.8898 4.01126 48.0264 6.32979C48.2803 6.95496 48.4102 7.60509 48.4165 8.2801C48.4839 9.51767 48.4514 10.7529 48.319 11.9857C47.6628 15.0798 45.7938 16.9813 42.7118 17.6903C40.9746 18.0042 39.3493 17.7116 37.836 16.8127C38.1339 16.3624 38.4426 15.9236 38.7624 15.4962C41.572 16.7783 43.9448 16.2258 45.8811 13.8385C46.2485 13.2333 46.5085 12.5833 46.6612 11.8882C46.8691 10.3404 46.8528 8.79634 46.6124 7.25618C45.8845 5.39617 44.5193 4.58357 42.5168 4.81829C41.9003 5.00767 41.2826 5.18642 40.664 5.35463C40.6478 4.80113 40.6641 4.24851 40.7128 3.69686C41.2812 3.46956 41.8501 3.27452 42.4193 3.11177ZM42.7118 6.32979C43.8542 6.19365 44.6506 6.64876 45.101 7.695C45.2916 9.02677 45.2916 10.3595 45.101 11.6931C44.1788 14.1898 42.4399 15.0512 39.8839 14.2773C39.6835 14.2103 39.521 14.0965 39.3963 13.936C40.3043 11.7528 40.7431 9.47739 40.7128 7.10991C41.3918 6.859 42.0581 6.59893 42.7118 6.32979Z" fill="#0A0A0A"/>
</svg>
