<svg width="20" height="21" viewBox="0 0 20 21" fill="none" xmlns="http://www.w3.org/2000/svg">
<path d="M19.9998 10.2323C19.9764 8.31485 19.4089 6.44408 18.3641 4.8403C17.3194 3.23651 15.8409 1.96649 14.1029 1.17981C12.3647 0.39314 10.4394 0.122576 8.55361 0.39997C6.66785 0.677375 4.90009 1.49118 3.45859 2.74558C2.01707 3.99997 0.96183 5.64269 0.417127 7.48028C-0.127564 9.31789 -0.139039 11.2738 0.384076 13.1178C0.907191 14.9617 1.9431 16.6168 3.3698 17.8882C4.79649 19.1597 6.55458 19.9944 8.43698 20.2941V13.1628H5.93692V10.2323H8.43698V8.00607C8.37911 7.48847 8.43486 6.96436 8.60036 6.47077C8.76587 5.97719 9.037 5.52616 9.39464 5.14953C9.75227 4.77289 10.1877 4.47983 10.6702 4.29103C11.1527 4.10222 11.6706 4.02227 12.1871 4.05683C12.9369 4.06715 13.6849 4.13443 14.4247 4.25807V6.77353H13.1746C12.9591 6.74618 12.7401 6.76791 12.5341 6.83712C12.328 6.90634 12.14 7.02126 11.984 7.17339C11.828 7.32553 11.708 7.51099 11.6328 7.71604C11.5576 7.92118 11.5292 8.14065 11.5496 8.35824V10.2574H14.3247L13.8746 13.1879H11.5621V20.2312C13.9245 19.8553 16.0748 18.6398 17.6229 16.8053C19.1709 14.9708 20.0142 12.6388 19.9998 10.2323Z" fill="black"/>
</svg>
