<svg width="215" height="67" viewBox="0 0 215 67" fill="none" xmlns="http://www.w3.org/2000/svg">
<path d="M78.964 20.974C79.3187 21.03 79.6407 21.1747 79.93 21.408C80.2287 21.6413 80.462 21.9307 80.63 22.276C80.8073 22.6213 80.896 22.99 80.896 23.382C80.896 23.8767 80.77 24.3247 80.518 24.726C80.266 25.118 79.8973 25.4307 79.412 25.664C78.936 25.888 78.3713 26 77.718 26H74.078V16.242H77.578C78.2407 16.242 78.8053 16.354 79.272 16.578C79.7387 16.7927 80.0887 17.0867 80.322 17.46C80.5553 17.8333 80.672 18.2533 80.672 18.72C80.672 19.2987 80.5133 19.7793 80.196 20.162C79.888 20.5353 79.4773 20.806 78.964 20.974ZM75.352 20.456H77.494C78.0913 20.456 78.5533 20.316 78.88 20.036C79.2067 19.756 79.37 19.3687 79.37 18.874C79.37 18.3793 79.2067 17.992 78.88 17.712C78.5533 17.432 78.082 17.292 77.466 17.292H75.352V20.456ZM77.606 24.95C78.2407 24.95 78.7353 24.8007 79.09 24.502C79.4447 24.2033 79.622 23.788 79.622 23.256C79.622 22.7147 79.4353 22.29 79.062 21.982C78.6887 21.6647 78.1893 21.506 77.564 21.506H75.352V24.95H77.606ZM82.1879 22.136C82.1879 21.352 82.3466 20.666 82.6639 20.078C82.9813 19.4807 83.4153 19.0187 83.9659 18.692C84.5259 18.3653 85.1466 18.202 85.8279 18.202C86.4999 18.202 87.0833 18.3467 87.5779 18.636C88.0726 18.9253 88.4413 19.2893 88.6839 19.728V18.328H89.9719V26H88.6839V24.572C88.4319 25.02 88.0539 25.3933 87.5499 25.692C87.0553 25.9813 86.4766 26.126 85.8139 26.126C85.1326 26.126 84.5166 25.958 83.9659 25.622C83.4153 25.286 82.9813 24.8147 82.6639 24.208C82.3466 23.6013 82.1879 22.9107 82.1879 22.136ZM88.6839 22.15C88.6839 21.5713 88.5673 21.0673 88.3339 20.638C88.1006 20.2087 87.7833 19.882 87.3819 19.658C86.9899 19.4247 86.5559 19.308 86.0799 19.308C85.6039 19.308 85.1699 19.42 84.7779 19.644C84.3859 19.868 84.0733 20.1947 83.8399 20.624C83.6066 21.0533 83.4899 21.5573 83.4899 22.136C83.4899 22.724 83.6066 23.2373 83.8399 23.676C84.0733 24.1053 84.3859 24.4367 84.7779 24.67C85.1699 24.894 85.6039 25.006 86.0799 25.006C86.5559 25.006 86.9899 24.894 87.3819 24.67C87.7833 24.4367 88.1006 24.1053 88.3339 23.676C88.5673 23.2373 88.6839 22.7287 88.6839 22.15ZM93.6789 19.378V23.9C93.6789 24.2733 93.7582 24.5393 93.9169 24.698C94.0755 24.8473 94.3509 24.922 94.7429 24.922H95.6809V26H94.5329C93.8235 26 93.2915 25.8367 92.9369 25.51C92.5822 25.1833 92.4049 24.6467 92.4049 23.9V19.378H91.4109V18.328H92.4049V16.396H93.6789V18.328H95.6809V19.378H93.6789ZM101.032 18.188C101.611 18.188 102.134 18.314 102.6 18.566C103.067 18.8087 103.431 19.1773 103.692 19.672C103.963 20.1667 104.098 20.7687 104.098 21.478V26H102.838V21.66C102.838 20.8947 102.647 20.3113 102.264 19.91C101.882 19.4993 101.359 19.294 100.696 19.294C100.024 19.294 99.4878 19.504 99.0865 19.924C98.6945 20.344 98.4985 20.9553 98.4985 21.758V26H97.2245V15.64H98.4985V19.42C98.7505 19.028 99.0958 18.7247 99.5345 18.51C99.9825 18.2953 100.482 18.188 101.032 18.188ZM108.896 26.126C108.308 26.126 107.78 26.028 107.314 25.832C106.847 25.6267 106.478 25.3467 106.208 24.992C105.937 24.628 105.788 24.2127 105.76 23.746H107.076C107.113 24.1287 107.29 24.4413 107.608 24.684C107.934 24.9267 108.359 25.048 108.882 25.048C109.367 25.048 109.75 24.9407 110.03 24.726C110.31 24.5113 110.45 24.2407 110.45 23.914C110.45 23.578 110.3 23.3307 110.002 23.172C109.703 23.004 109.241 22.8407 108.616 22.682C108.046 22.5327 107.58 22.3833 107.216 22.234C106.861 22.0753 106.553 21.8467 106.292 21.548C106.04 21.24 105.914 20.8387 105.914 20.344C105.914 19.952 106.03 19.5927 106.264 19.266C106.497 18.9393 106.828 18.6827 107.258 18.496C107.687 18.3 108.177 18.202 108.728 18.202C109.577 18.202 110.263 18.4167 110.786 18.846C111.308 19.2753 111.588 19.8633 111.626 20.61H110.352C110.324 20.2087 110.16 19.8867 109.862 19.644C109.572 19.4013 109.18 19.28 108.686 19.28C108.228 19.28 107.864 19.378 107.594 19.574C107.323 19.77 107.188 20.0267 107.188 20.344C107.188 20.596 107.267 20.806 107.426 20.974C107.594 21.1327 107.799 21.2633 108.042 21.366C108.294 21.4593 108.639 21.5667 109.078 21.688C109.628 21.8373 110.076 21.9867 110.422 22.136C110.767 22.276 111.061 22.4907 111.304 22.78C111.556 23.0693 111.686 23.4473 111.696 23.914C111.696 24.334 111.579 24.712 111.346 25.048C111.112 25.384 110.781 25.65 110.352 25.846C109.932 26.0327 109.446 26.126 108.896 26.126Z" fill="#888888"/>
<path d="M81.272 42.032L77.016 52H74.744L79.032 42.288H73.56V40.368H81.272V42.032Z" fill="black"/>
<path opacity="0.963" fill-rule="evenodd" clip-rule="evenodd" d="M58 33.3155C58 33.8363 58 34.3572 58 34.878C57.792 35.4227 57.4828 35.911 57.0723 36.3428C57.0586 38.7861 56.9935 41.2275 56.877 43.667C56.3709 47.1062 54.7921 49.9219 52.1406 52.1143C52.7236 53.2965 53.2933 54.4846 53.8496 55.6787C53.9576 56.4718 53.6158 56.9275 52.8242 57.0459C52.4521 56.9983 52.1429 56.8355 51.8965 56.5576C51.3431 55.4509 50.7897 54.3441 50.2363 53.2373C48.6422 54.1284 46.9332 54.6656 45.1094 54.8487C37.0364 54.9138 28.9636 54.9138 20.8906 54.8487C19.0668 54.6656 17.3578 54.1284 15.7637 53.2373C15.191 54.4643 14.5563 55.6524 13.8594 56.8018C12.9077 57.2335 12.3218 56.9406 12.1016 55.9229C12.6334 54.6312 13.2193 53.3616 13.8594 52.1143C11.2053 49.916 9.62649 47.1003 9.12305 43.667C9.00651 41.2275 8.94141 38.7861 8.92773 36.3428C8.48984 35.8889 8.1806 35.3681 8 34.7803C8 34.292 8 33.8037 8 33.3155C8.47917 31.8038 9.52084 30.9901 11.125 30.8741C11.1087 24.7541 11.125 18.6344 11.1738 12.5147C11.6458 10.7406 12.7689 9.61754 14.543 9.14554C16.6911 8.95149 18.8396 8.95149 20.9883 9.14554C23.0416 9.81628 24.1483 11.2323 24.3086 13.3936C26.1428 13.9421 27.2984 15.1465 27.7754 17.0069C27.8405 18.3089 27.8405 19.6111 27.7754 20.9131C27.6289 21.1898 27.4173 21.4014 27.1406 21.5479C24.4714 21.613 21.8021 21.613 19.1328 21.5479C18.7158 21.4239 18.4717 21.1471 18.4004 20.7178C18.3353 19.6111 18.3353 18.5042 18.4004 17.3975C18.7887 15.3002 20.0094 13.9656 22.0625 13.3936C21.9598 12.07 21.2436 11.3376 19.9141 11.1963C18.2826 11.1076 16.655 11.1402 15.0312 11.294C14.1788 11.5278 13.6092 12.0649 13.3223 12.9053C13.2734 18.8948 13.2572 24.8844 13.2734 30.8741C27.2383 30.8577 41.2031 30.8741 55.168 30.9229C56.6402 31.1103 57.5842 31.9077 58 33.3155ZM22.9414 15.3467C24.3429 15.4298 25.238 16.1459 25.627 17.4951C25.6758 18.1453 25.692 18.7964 25.6758 19.4483C23.9505 19.4483 22.2253 19.4483 20.5 19.4483C20.1229 17.3338 20.9367 15.9666 22.9414 15.3467ZM11.125 33.0225C25.6758 33.0062 40.2266 33.0225 54.7773 33.0713C55.6721 33.2168 55.9813 33.7213 55.7051 34.585C55.5452 34.8106 55.3336 34.9571 55.0703 35.0244C40.3894 35.0896 25.7083 35.0896 11.0273 35.0244C10.1499 34.7505 9.9383 34.2134 10.3926 33.4131C10.6128 33.2179 10.857 33.0877 11.125 33.0225ZM11.125 37.2217C25.7083 37.2217 40.2917 37.2217 54.875 37.2217C54.903 39.242 54.8542 41.2603 54.7285 43.2764C54.0327 47.3899 51.7704 50.2707 47.9414 51.919C46.9006 52.3175 45.8264 52.578 44.7188 52.7002C36.9062 52.7654 29.0938 52.7654 21.2812 52.7002C16.665 52.1439 13.4912 49.7187 11.7598 45.4248C11.5354 44.7229 11.3727 44.0067 11.2715 43.2764C11.1458 41.2603 11.097 39.242 11.125 37.2217Z" fill="#0A0A0A"/>
</svg>
