<svg width="50" height="50" viewBox="0 0 50 50" fill="none" xmlns="http://www.w3.org/2000/svg">
<path opacity="0.974" fill-rule="evenodd" clip-rule="evenodd" d="M50 13.9489C50 25.4724 50 36.9958 50 48.5192C49.8071 48.8572 49.5142 49.0688 49.1211 49.154C33.0403 49.2191 16.9597 49.2191 0.878906 49.154C0.485881 49.0688 0.192912 48.8572 0 48.5192C0 36.9958 0 25.4724 0 13.9489C0.139787 13.7598 0.302548 13.5808 0.488281 13.4118C8.41417 9.04206 16.3243 4.64753 24.2188 0.228229C24.8213 -0.105737 25.4072 -0.0731856 25.9766 0.325886C33.8059 4.71263 41.6509 9.07461 49.5117 13.4118C49.6975 13.5808 49.8603 13.7598 50 13.9489ZM24.8047 2.62081C25.0903 2.61688 25.3507 2.69827 25.5859 2.86495C32.9102 6.95023 40.2344 11.0356 47.5586 15.1208C47.6562 25.7 47.6888 36.2795 47.6562 46.8591C46.2239 46.8591 44.7917 46.8591 43.3594 46.8591C43.4077 38.0295 43.3589 29.2079 43.2129 20.3942C43.0664 20.2478 42.9199 20.1013 42.7734 19.9548C30.957 19.8897 19.1406 19.8897 7.32422 19.9548C7.04753 20.1013 6.83594 20.3129 6.68945 20.5896C6.64062 29.346 6.62435 38.1025 6.64062 46.8591C5.20833 46.8591 3.77604 46.8591 2.34375 46.8591C2.3112 36.2795 2.34375 25.7 2.44141 15.1208C9.91768 10.9762 17.3721 6.80953 24.8047 2.62081ZM8.98438 22.2497C19.6614 22.2497 30.3386 22.2497 41.0156 22.2497C41.0156 23.682 41.0156 25.1143 41.0156 26.5466C30.3386 26.5466 19.6614 26.5466 8.98438 26.5466C8.98438 25.1143 8.98438 23.682 8.98438 22.2497ZM8.98438 28.8903C19.6614 28.8903 30.3386 28.8903 41.0156 28.8903C41.0156 30.3227 41.0156 31.7549 41.0156 33.1872C30.3386 33.1872 19.6614 33.1872 8.98438 33.1872C8.98438 31.7549 8.98438 30.3227 8.98438 28.8903ZM8.98438 35.531C19.6614 35.531 30.3386 35.531 41.0156 35.531C41.0156 36.9633 41.0156 38.3955 41.0156 39.8278C30.3386 39.8278 19.6614 39.8278 8.98438 39.8278C8.98438 38.3955 8.98438 36.9633 8.98438 35.531ZM8.98438 42.1716C19.6614 42.1716 30.3386 42.1716 41.0156 42.1716C41.0156 43.7341 41.0156 45.2966 41.0156 46.8591C30.3386 46.8591 19.6614 46.8591 8.98438 46.8591C8.98438 45.2966 8.98438 43.7341 8.98438 42.1716Z" fill="#0A0A0A"/>
</svg>
