<svg width="20" height="21" viewBox="0 0 20 21" fill="none" xmlns="http://www.w3.org/2000/svg">
<path fill-rule="evenodd" clip-rule="evenodd" d="M0 4.11765C0 1.84353 1.79086 0 4 0H16C18.2091 0 20 1.84353 20 4.11765V16.4706C20 18.7447 18.2091 20.5882 16 20.5882H4C1.79086 20.5882 0 18.7447 0 16.4706V4.11765ZM4 2.05882C2.89543 2.05882 2 2.98059 2 4.11765V16.4706C2 17.6077 2.89543 18.5294 4 18.5294H16C17.1046 18.5294 18 17.6077 18 16.4706V4.11765C18 2.98059 17.1046 2.05882 16 2.05882H4ZM10 7.20588C8.3431 7.20588 7 8.58849 7 10.2941C7 11.9998 8.3431 13.3824 10 13.3824C11.6569 13.3824 13 11.9998 13 10.2941C13 8.58849 11.6569 7.20588 10 7.20588ZM5 10.2941C5 7.45148 7.23858 5.14706 10 5.14706C12.7614 5.14706 15 7.45148 15 10.2941C15 13.1367 12.7614 15.4412 10 15.4412C7.23858 15.4412 5 13.1367 5 10.2941ZM15.5 6.17647C16.3284 6.17647 17 5.48515 17 4.63235C17 3.77956 16.3284 3.08824 15.5 3.08824C14.6716 3.08824 14 3.77956 14 4.63235C14 5.48515 14.6716 6.17647 15.5 6.17647Z" fill="black"/>
</svg>
