<svg width="20" height="17" viewBox="0 0 20 17" fill="none" xmlns="http://www.w3.org/2000/svg">
<path d="M17.9525 4.21534C17.9605 4.39151 17.9645 4.56849 17.9645 4.74626C17.9645 10.1687 13.8368 16.4209 6.29028 16.4209C3.97289 16.4209 1.81582 15.7415 0 14.5773C0.32141 14.6153 0.647596 14.6348 0.978947 14.6348C2.9015 14.6348 4.67047 13.9789 6.07521 12.8781C4.27923 12.8452 2.7642 11.6587 2.242 10.0286C2.49281 10.0766 2.74956 10.1024 3.01422 10.1024C3.388 10.1024 3.75066 10.052 4.09512 9.95838C2.21821 9.58135 0.803526 7.92311 0.803526 5.93507C0.803526 5.91762 0.803526 5.90055 0.803956 5.88349C1.35711 6.19061 1.98964 6.37515 2.66259 6.39656C1.56145 5.6609 0.837264 4.40497 0.837264 2.98121C0.837264 2.22927 1.03922 1.52453 1.39276 0.918577C3.41653 3.40101 6.4394 5.03429 9.84963 5.20572C9.7798 4.90532 9.74325 4.59225 9.74325 4.27045C9.74325 2.00465 11.5805 0.167419 13.8463 0.167419C15.0272 0.167419 16.093 0.665817 16.8414 1.463C17.7763 1.27928 18.654 0.937638 19.4468 0.467382C19.1405 1.4257 18.4905 2.22962 17.643 2.73753C18.4731 2.63831 19.2643 2.41772 20 2.09154C19.4501 2.91416 18.7541 3.63675 17.9525 4.21534Z" fill="black"/>
</svg>
